<?xml version="1.0" encoding="utf-8"?>
<!-- Generator: Adobe Illustrator 21.0.2, SVG Export Plug-In . SVG Version: 6.00 Build 0)  -->
<svg version="1.1" id="Layer_1" xmlns="http://www.w3.org/2000/svg" xmlns:xlink="http://www.w3.org/1999/xlink" x="0px" y="0px"
	 viewBox="0 0 245 65" style="enable-background:new 0 0 245 65;" xml:space="preserve">
<style type="text/css">
	.st0{fill:#FFFFFF;}
	.st1{fill:#002F87;}
	.st2{fill:url(#XMLID_2_);}
	.st3{fill:url(#XMLID_3_);}
	.st4{fill:url(#XMLID_4_);}
	.st5{fill:url(#XMLID_5_);}
	.st6{fill:url(#XMLID_6_);}
	.st7{fill:url(#XMLID_7_);}
	.st8{fill:url(#XMLID_8_);}
	.st9{fill:url(#XMLID_9_);}
	.st10{fill:url(#XMLID_10_);}
	.st11{fill:url(#XMLID_11_);}
	.st12{fill:url(#XMLID_12_);}
	.st13{fill:url(#XMLID_13_);}
	.st14{fill:url(#XMLID_14_);}
	.st15{fill:url(#XMLID_15_);}
	.st16{fill:url(#XMLID_16_);}
	.st17{fill:url(#XMLID_17_);}
	.st18{fill:url(#XMLID_18_);}
	.st19{fill:url(#XMLID_19_);}
	.st20{fill:url(#XMLID_20_);}
	.st21{fill:url(#XMLID_21_);}
	.st22{fill:url(#XMLID_22_);}
	.st23{fill:url(#XMLID_23_);}
	.st24{fill:url(#XMLID_24_);}
	.st25{fill:url(#XMLID_25_);}
	.st26{fill:url(#XMLID_26_);}
	.st27{fill:url(#XMLID_27_);}
	.st28{fill:url(#XMLID_28_);}
	.st29{fill:url(#XMLID_29_);}
	.st30{fill:url(#XMLID_30_);}
	.st31{fill:url(#XMLID_31_);}
	.st32{fill:url(#XMLID_32_);}
	.st33{fill:url(#XMLID_33_);}
	.st34{fill:url(#XMLID_34_);}
	.st35{fill:url(#XMLID_35_);}
	.st36{fill:url(#XMLID_36_);}
	.st37{fill:url(#XMLID_37_);}
	.st38{fill:url(#XMLID_38_);}
	.st39{fill:url(#XMLID_39_);}
	.st40{fill:url(#XMLID_40_);}
	.st41{fill:url(#XMLID_41_);}
	.st42{fill:url(#XMLID_42_);}
	.st43{fill:url(#XMLID_43_);}
	.st44{fill:url(#XMLID_44_);}
	.st45{fill:url(#XMLID_45_);}
	.st46{fill:url(#XMLID_46_);}
	.st47{fill:url(#XMLID_47_);}
	.st48{fill:url(#XMLID_48_);}
	.st49{fill:url(#XMLID_49_);}
	.st50{fill:url(#XMLID_50_);}
	.st51{fill:url(#XMLID_51_);}
	.st52{fill:url(#XMLID_52_);}
	.st53{fill:url(#XMLID_53_);}
	.st54{fill:url(#XMLID_54_);}
	.st55{fill:url(#XMLID_55_);}
	.st56{fill:url(#XMLID_59_);}
	.st57{fill:url(#XMLID_60_);}
	.st58{fill:url(#XMLID_68_);}
	.st59{fill:url(#XMLID_69_);}
	.st60{fill:url(#XMLID_72_);}
	.st61{fill:url(#XMLID_73_);}
	.st62{fill:url(#XMLID_77_);}
	.st63{fill:url(#XMLID_78_);}
	.st64{fill:url(#XMLID_84_);}
	.st65{fill:url(#XMLID_85_);}
	.st66{fill:url(#XMLID_89_);}
	.st67{fill:url(#XMLID_90_);}
	.st68{fill:url(#XMLID_94_);}
	.st69{fill:url(#XMLID_95_);}
	.st70{fill:url(#XMLID_99_);}
	.st71{fill:url(#XMLID_100_);}
	.st72{fill:url(#XMLID_104_);}
	.st73{fill:url(#XMLID_105_);}
	.st74{fill:url(#XMLID_122_);}
	.st75{fill:url(#XMLID_123_);}
	.st76{fill:url(#XMLID_124_);}
	.st77{fill:url(#XMLID_125_);}
	.st78{fill:url(#XMLID_126_);}
	.st79{fill:url(#XMLID_127_);}
	.st80{fill:url(#XMLID_175_);}
	.st81{fill:url(#XMLID_176_);}
	.st82{fill:url(#XMLID_189_);}
	.st83{fill:url(#XMLID_190_);}
	.st84{fill:url(#XMLID_191_);}
	.st85{fill:url(#XMLID_192_);}
	.st86{fill:url(#XMLID_193_);}
	.st87{fill:url(#XMLID_194_);}
	.st88{fill:url(#XMLID_195_);}
	.st89{fill:url(#XMLID_196_);}
</style>
<rect class="st0" width="245" height="65"/>
<g id="XMLID_56_">
	<g id="XMLID_170_">
		<path id="XMLID_188_" class="st1" d="M141.2,26.9c-0.7-0.7-1.4-1.3-2.3-1.7c-0.9-0.4-1.9-0.6-2.9-0.6h-6.7c-0.9,0-1.5-0.3-2-0.8
			c-0.5-0.5-0.7-1.2-0.7-1.8c0-0.7,0.2-1.3,0.7-1.8c0.5-0.5,1.1-0.8,2-0.8h10.1c0.7,0,1.2-0.3,1.8-0.8c0.5-0.5,0.8-1.1,0.8-1.9
			c0-0.6-0.2-1.2-0.7-1.8c-0.5-0.6-1.1-0.8-1.8-0.8H129c-1.1,0-2.1,0.3-3,0.7c-0.9,0.4-1.7,1-2.4,1.7c-0.7,0.7-1.2,1.5-1.6,2.5
			c-0.4,0.9-0.6,1.9-0.6,2.9c0,1.1,0.2,2.1,0.6,3.1c0.4,1,0.9,1.8,1.6,2.5c0.7,0.7,1.4,1.3,2.3,1.7c0.9,0.4,1.8,0.6,2.8,0.6h6.5
			c0.9,0,1.5,0.2,2,0.6c0.5,0.4,0.7,1,0.7,1.9c0,0.8-0.2,1.5-0.7,1.9c-0.5,0.5-1.2,0.7-2,0.7h-9.9c-0.7,0-1.3,0.3-1.8,0.9
			c-0.5,0.6-0.7,1.2-0.7,1.9c0,0.7,0.2,1.3,0.7,1.8c0.5,0.5,1,0.8,1.8,0.8h10c1.2,0,2.3-0.2,3.3-0.6c1-0.4,1.9-0.9,2.6-1.6
			c0.7-0.7,1.3-1.5,1.7-2.5c0.4-1,0.6-2,0.6-3.2c0-1-0.2-2-0.6-2.9C142.4,28.4,141.9,27.6,141.2,26.9z"/>
		<path id="XMLID_187_" class="st1" d="M177.1,14.9c-0.6-0.5-1.2-0.7-1.9-0.7c-0.7,0-1.3,0.3-1.9,0.8c-0.5,0.5-0.8,1.1-0.8,1.9v14.3
			c0,1-0.4,1.9-1.1,2.7c-0.7,0.8-1.7,1.1-2.8,1.1c-1,0-1.9-0.3-2.7-1c-0.8-0.6-1.2-1.6-1.2-2.9V16.8c0-0.7-0.3-1.3-0.8-1.9
			c-0.5-0.5-1.2-0.8-1.9-0.8c-0.7,0-1.3,0.2-1.8,0.7c-0.5,0.5-0.8,1-0.8,1.7v14.6c0,1.2-0.5,2.1-1.2,2.8c-0.8,0.7-1.7,1-2.7,1
			c-1,0-2-0.4-2.7-1.1c-0.8-0.7-1.2-1.6-1.2-2.8V16.5c-0.1-0.6-0.4-1.2-0.9-1.6c-0.5-0.5-1.1-0.7-1.7-0.7c-0.7,0-1.4,0.2-2,0.7
			c-0.6,0.5-0.8,1.1-0.8,1.8v14.6c0,1.2,0.2,2.4,0.7,3.5c0.5,1.1,1.1,2,2,2.9c0.8,0.8,1.8,1.5,3,2c1.1,0.5,2.4,0.7,3.7,0.7
			c1.1,0,2.2-0.2,3.3-0.6c1.1-0.4,2.2-1.1,3.3-2c2.2,1.8,4.4,2.6,6.6,2.6c1.2,0,2.4-0.2,3.5-0.7c1.1-0.5,2.1-1.1,3-1.9
			c0.9-0.8,1.6-1.8,2.1-2.9c0.5-1.1,0.8-2.3,0.8-3.5V16.5C177.9,15.9,177.6,15.3,177.1,14.9z"/>
		<path id="XMLID_184_" class="st1" d="M203.5,18.5c-1-1.2-2.3-2.1-3.7-2.9c-1.4-0.8-3-1.2-4.6-1.4c-0.3,0-0.5-0.1-0.8-0.1
			c-0.2,0-0.5,0-0.8,0c-2.7,0-5.1,0.7-7.3,2.2c-2.1,1.4-3.7,3.3-4.8,5.7c-0.4,0.8-0.6,1.7-0.8,2.5c-0.2,0.9-0.3,1.8-0.3,2.7
			c0,0.9,0.1,1.8,0.3,2.7c0.2,0.9,0.5,1.7,0.8,2.5c1,2.3,2.6,4.2,4.8,5.6c2.1,1.5,4.6,2.2,7.3,2.2c1,0,2-0.1,2.9-0.3
			c0.5-0.1,0.9-0.3,1.4-0.4c0.4-0.1,0.8-0.3,1.2-0.5c0.2-0.1,0.6-0.3,1-0.5c0.5-0.3,0.8-0.4,1-0.5c0,0.5,0.2,0.9,0.4,1.2
			c0.2,0.3,0.5,0.5,0.8,0.7c0.3,0.2,0.6,0.3,0.9,0.3c0.3,0,0.6,0.1,0.8,0.1c0.7,0,1.3-0.3,1.8-0.8c0.5-0.5,0.8-1.1,0.8-1.9V27.2
			c0-1.7-0.3-3.2-0.9-4.7C205.4,21,204.5,19.6,203.5,18.5z M200.9,30.3c-0.4,0.9-1,1.8-1.7,2.5c-0.7,0.7-1.5,1.3-2.5,1.6
			c-1,0.4-2,0.6-3,0.6c-1,0-1.9-0.2-2.8-0.6c-0.9-0.4-1.8-1-2.5-1.7c-0.7-0.7-1.3-1.5-1.8-2.5c-0.4-0.9-0.7-1.9-0.7-3
			c0-1,0.2-2,0.6-3c0.4-0.9,1-1.8,1.7-2.5c0.7-0.7,1.5-1.3,2.5-1.7c0.9-0.4,1.9-0.6,3-0.6c1,0,2,0.2,3,0.6c0.9,0.4,1.8,1,2.5,1.7
			c0.7,0.7,1.3,1.5,1.7,2.5c0.4,1,0.6,1.9,0.6,2.9C201.5,28.3,201.3,29.3,200.9,30.3z"/>
		<path id="XMLID_181_" class="st1" d="M234.7,22.2c-0.7-1.6-1.7-3-2.8-4.2c-1.2-1.2-2.6-2.1-4.2-2.8c-1.6-0.7-3.3-1.1-5.1-1.1
			c-1.8,0-3.5,0.3-5,1c-1.6,0.7-3,1.6-4.2,2.8c-1.2,1.2-2.1,2.6-2.8,4.2c-0.7,1.6-1.1,3.3-1.1,5.1c0,1.8,0.3,3.5,1,5.1
			c0.7,1.6,1.6,3,2.8,4.2c1.2,1.2,2.6,2.1,4.2,2.8c1.6,0.7,3.3,1,5.2,1c2.3,0,4.9-0.7,7.8-2.2v10.3c0,0.7,0.3,1.3,0.8,1.8
			c0.5,0.5,1.2,0.8,2,0.8c0.7,0,1.3-0.2,1.8-0.7c0.5-0.5,0.8-1,0.8-1.7V27.3C235.8,25.5,235.4,23.8,234.7,22.2z M229.8,30.4
			c-0.4,1-1,1.8-1.7,2.5c-0.7,0.7-1.6,1.2-2.5,1.6c-0.9,0.4-1.9,0.6-3,0.6c-1.1,0-2.1-0.2-3.1-0.6c-1-0.4-1.8-1-2.5-1.7
			c-0.7-0.7-1.2-1.5-1.6-2.5c-0.4-0.9-0.6-1.9-0.6-3c0-1.1,0.2-2.1,0.6-3c0.4-0.9,1-1.8,1.7-2.5c0.7-0.7,1.5-1.2,2.5-1.6
			c0.9-0.4,1.9-0.6,3-0.6c1.1,0,2.1,0.2,3.1,0.6c0.9,0.4,1.8,1,2.5,1.7c0.7,0.7,1.3,1.5,1.7,2.5c0.4,0.9,0.6,1.9,0.6,3
			C230.4,28.4,230.2,29.5,229.8,30.4z"/>
		<path id="XMLID_180_" class="st1" d="M118.7,24.6c0-3.5,0-7,0-10.5c-2.2,0-6,0-8.7,0C114.3,16,117.6,19.9,118.7,24.6z"/>
		<path id="XMLID_179_" class="st1" d="M118.7,36.7c-0.1-1.2-0.2-2.3-0.4-3.4c-0.2-1-0.4-2.1-0.6-3.1c-0.3-1.5-0.7-2.8-1.1-4
			c-1-2.8-2.2-5-3.7-6.9c-1.9-2.3-4-3.9-6.5-4.7c-1.8-0.6-3.6-0.8-5.6-0.5c-2.2,0.3-4.3,1.1-6.1,2.5c-1.6,1.2-2.9,2.7-3.8,4.4
			c-0.7,1.4-1.2,2.9-1.4,4.4c-0.2,1.3-0.1,2.7,0.1,4.1c0.2,1.3,0.6,2.5,1.2,3.6c1,2.1,2.5,3.7,4.4,4.9c1.4,0.9,2.9,1.6,4.6,1.9
			c1.7,0.3,3.5,0.3,5.3,0c1.2-0.2,2.2-0.6,3.3-1.2c0.4-0.2,0.7-0.5,1-0.7c0-0.4,0.1-0.9,0-1.4c-0.1-1.3-0.2-2.6-0.5-3.8
			c-0.2-0.8-0.4-1.5-0.6-2.1c-0.1,0.1-0.2,0.2-0.3,0.3c-1.4,1.4-3,2.2-4.8,2.4c-2,0.2-3.7-0.3-5.1-1.6c-1-0.9-1.6-2.1-1.9-3.5
			c-0.3-1.4-0.1-2.7,0.4-3.9c0.9-2,2.5-3.3,4.6-3.7c0.4-0.1,0.8-0.1,1.2-0.1c1.6,0,3.1,0.6,4.5,1.8c2,1.7,3,3.9,3.6,5.4
			c0.7,1.8,1.2,3.7,1.5,5.8c0.2,1.3,0.3,2.5,0.4,3.6c0,0.1,0,0.1,0,0.2c0.2,1.5,1.5,2.7,3.1,2.7c1.7,0,3.1-1.4,3.1-3.1v0
			C118.7,37,118.7,36.9,118.7,36.7L118.7,36.7z"/>
		<path id="XMLID_178_" class="st1" d="M211.2,47c0.2-0.2,0.3-0.3,0.5-0.4c0.2-0.1,0.4-0.1,0.6-0.1c0.4,0,0.8,0.1,1.1,0.4
			c0.1,0.1,0.2,0.1,0.4,0.1c0.1,0,0.2,0,0.2,0c0.1,0,0.1-0.1,0.2-0.1c0.1-0.1,0.2-0.3,0.2-0.4c0-0.1,0-0.1,0-0.2
			c0-0.1-0.1-0.1-0.1-0.2h0c-0.5-0.5-1.2-0.8-1.9-0.8c-0.4,0-0.7,0.1-1.1,0.2c-0.3,0.2-0.6,0.4-0.9,0.6c-0.3,0.3-0.5,0.5-0.6,0.9
			c-0.1,0.3-0.2,0.7-0.2,1c0,0.4,0.1,0.7,0.2,1.1c0.1,0.3,0.3,0.6,0.6,0.9c0.3,0.3,0.5,0.5,0.9,0.6c0.3,0.1,0.7,0.2,1.1,0.2
			c0.4,0,0.7-0.1,1.1-0.2c0.3-0.1,0.6-0.3,0.9-0.6c0,0,0.1-0.1,0.1-0.2c0-0.1,0-0.1,0-0.2c0-0.1-0.1-0.3-0.2-0.4
			c-0.1-0.1-0.2-0.2-0.4-0.2c-0.2,0-0.3,0-0.3,0.1c-0.4,0.3-0.7,0.5-1.2,0.5c-0.2,0-0.4,0-0.6-0.1c-0.2-0.1-0.4-0.2-0.5-0.4
			c-0.2-0.2-0.3-0.3-0.4-0.5c-0.1-0.2-0.1-0.4-0.1-0.6c0-0.2,0-0.4,0.1-0.6C210.9,47.3,211.1,47.1,211.2,47z"/>
		<path id="XMLID_173_" class="st1" d="M219.4,46.3c-0.3-0.3-0.5-0.5-0.9-0.6c-0.3-0.1-0.7-0.2-1.1-0.2c-0.4,0-0.8,0.1-1.1,0.2
			c-0.3,0.1-0.6,0.3-0.9,0.6s-0.4,0.5-0.6,0.9c-0.1,0.3-0.2,0.7-0.2,1.1c0,0.4,0.1,0.8,0.2,1.1c0.1,0.3,0.3,0.6,0.6,0.9
			c0.3,0.2,0.5,0.4,0.9,0.6c0.3,0.1,0.7,0.2,1.1,0.2c0.4,0,0.7-0.1,1.1-0.2c0.3-0.1,0.6-0.3,0.9-0.6c0.2-0.3,0.4-0.5,0.6-0.9
			c0.1-0.3,0.2-0.7,0.2-1.1c0-0.4-0.1-0.7-0.2-1.1C219.9,46.8,219.7,46.5,219.4,46.3z M219,48.9c-0.1,0.2-0.2,0.4-0.4,0.5
			c-0.1,0.2-0.3,0.3-0.5,0.4c-0.2,0.1-0.4,0.1-0.6,0.1c-0.2,0-0.4,0-0.6-0.1c-0.2-0.1-0.4-0.2-0.5-0.4c-0.1-0.2-0.3-0.3-0.4-0.5
			c-0.1-0.2-0.1-0.4-0.1-0.6c0-0.2,0-0.5,0.1-0.7c0.1-0.2,0.2-0.4,0.4-0.5c0.1-0.1,0.3-0.3,0.5-0.3c0.2-0.1,0.4-0.1,0.6-0.1h0
			c0.5,0,0.9,0.2,1.2,0.5c0.3,0.3,0.5,0.7,0.5,1.1C219.1,48.4,219.1,48.7,219,48.9z"/>
		<path id="XMLID_172_" class="st1" d="M226.7,45.9c-0.2-0.2-0.4-0.3-0.6-0.4c-0.2-0.1-0.5-0.1-0.7-0.1c-0.4,0-0.9,0.2-1.4,0.6
			c-0.2-0.2-0.5-0.3-0.7-0.4c-0.2-0.1-0.5-0.1-0.7-0.1c-0.3,0-0.5,0.1-0.8,0.2c-0.2,0.1-0.4,0.2-0.6,0.4c-0.2,0.2-0.3,0.4-0.4,0.6
			c-0.1,0.2-0.2,0.5-0.2,0.7v3.1c0,0.2,0,0.3,0.2,0.4c0.1,0.1,0.3,0.2,0.4,0.2c0.1,0,0.3,0,0.4-0.1c0.1-0.1,0.2-0.2,0.2-0.3v-3.1
			c0-0.2,0.1-0.4,0.3-0.6c0.2-0.2,0.4-0.2,0.6-0.2c0.2,0,0.4,0.1,0.6,0.2c0.2,0.1,0.3,0.3,0.3,0.6v3.1c0,0.1,0.1,0.3,0.2,0.4
			c0.1,0.1,0.2,0.1,0.4,0.1c0.2,0,0.3-0.1,0.4-0.2c0.1-0.1,0.2-0.2,0.2-0.4v-3c0-0.3,0.1-0.5,0.3-0.6c0.2-0.1,0.4-0.2,0.6-0.2
			c0.2,0,0.4,0.1,0.6,0.2c0.2,0.2,0.2,0.4,0.2,0.6v3c0,0.2,0.1,0.3,0.2,0.4c0.1,0.1,0.2,0.2,0.4,0.2c0.2,0,0.3-0.1,0.4-0.2
			c0.1-0.1,0.2-0.2,0.2-0.3v-3.1c0-0.3-0.1-0.5-0.2-0.7C227,46.3,226.9,46.1,226.7,45.9z"/>
		<path id="XMLID_171_" class="st1" d="M206,46.3c-0.3-0.3-0.5-0.5-0.9-0.6c-0.3-0.1-0.7-0.2-1.1-0.2c-0.4,0-0.8,0.1-1.1,0.2
			c-0.3,0.1-0.6,0.3-0.9,0.6c-0.3,0.2-0.4,0.5-0.6,0.9c-0.1,0.3-0.2,0.7-0.2,1.1c0,0.4,0.1,0.8,0.2,1.1c0.1,0.3,0.3,0.6,0.6,0.9
			c0.3,0.2,0.5,0.4,0.9,0.6c0.3,0.1,0.7,0.2,1.1,0.2c0.4,0,0.7-0.1,1.1-0.2c0.3-0.1,0.6-0.3,0.9-0.6c0.2-0.3,0.4-0.5,0.6-0.9
			c0.1-0.3,0.2-0.7,0.2-1.1c0-0.4-0.1-0.7-0.2-1.1C206.5,46.8,206.3,46.5,206,46.3z"/>
	</g>
	<g id="XMLID_57_">
		<linearGradient id="XMLID_2_" gradientUnits="userSpaceOnUse" x1="28.2005" y1="1.683" x2="80.6721" y2="54.1546">
			<stop  offset="0" style="stop-color:#EA1946"/>
			<stop  offset="0.9987" style="stop-color:#2B2D7D"/>
		</linearGradient>
		<circle id="XMLID_169_" class="st2" cx="56.4" cy="29.9" r="2.7"/>
		<linearGradient id="XMLID_3_" gradientUnits="userSpaceOnUse" x1="47.4679" y1="-17.5843" x2="99.9394" y2="34.8872">
			<stop  offset="0" style="stop-color:#EA1946"/>
			<stop  offset="0.9987" style="stop-color:#2B2D7D"/>
		</linearGradient>
		<circle id="XMLID_168_" class="st3" cx="72.2" cy="7.2" r="4.6"/>
		<linearGradient id="XMLID_4_" gradientUnits="userSpaceOnUse" x1="33.0835" y1="-3.2" x2="85.5551" y2="49.2716">
			<stop  offset="0" style="stop-color:#EA1946"/>
			<stop  offset="0.9987" style="stop-color:#2B2D7D"/>
		</linearGradient>
		<circle id="XMLID_167_" class="st4" cx="64.6" cy="28.4" r="5.1"/>
		<linearGradient id="XMLID_5_" gradientUnits="userSpaceOnUse" x1="14.9436" y1="14.94" x2="67.4151" y2="67.4116">
			<stop  offset="0" style="stop-color:#EA1946"/>
			<stop  offset="0.9987" style="stop-color:#2B2D7D"/>
		</linearGradient>
		<circle id="XMLID_166_" class="st5" cx="18.3" cy="18.3" r="5.4"/>
		<linearGradient id="XMLID_6_" gradientUnits="userSpaceOnUse" x1="22.644" y1="7.2396" x2="75.1155" y2="59.7111">
			<stop  offset="0" style="stop-color:#EA1946"/>
			<stop  offset="0.9987" style="stop-color:#2B2D7D"/>
		</linearGradient>
		<circle id="XMLID_165_" class="st6" cx="71.4" cy="56" r="5.7"/>
		<linearGradient id="XMLID_7_" gradientUnits="userSpaceOnUse" x1="7.9097" y1="21.9738" x2="60.3813" y2="74.4454">
			<stop  offset="0" style="stop-color:#EA1946"/>
			<stop  offset="0.9987" style="stop-color:#2B2D7D"/>
		</linearGradient>
		<circle id="XMLID_164_" class="st7" cx="14" cy="28" r="4.8"/>
		<linearGradient id="XMLID_8_" gradientUnits="userSpaceOnUse" x1="6.6852" y1="23.1984" x2="59.1567" y2="75.6699">
			<stop  offset="0" style="stop-color:#EA1946"/>
			<stop  offset="0.9987" style="stop-color:#2B2D7D"/>
		</linearGradient>
		<circle id="XMLID_163_" class="st8" cx="22.5" cy="39" r="4.3"/>
		<linearGradient id="XMLID_9_" gradientUnits="userSpaceOnUse" x1="27.9877" y1="1.8958" x2="80.4593" y2="54.3674">
			<stop  offset="0" style="stop-color:#EA1946"/>
			<stop  offset="0.9987" style="stop-color:#2B2D7D"/>
		</linearGradient>
		<circle id="XMLID_162_" class="st9" cx="40" cy="14" r="3.1"/>
		<linearGradient id="XMLID_10_" gradientUnits="userSpaceOnUse" x1="32.3542" y1="-2.4707" x2="84.8258" y2="50.0009">
			<stop  offset="0" style="stop-color:#EA1946"/>
			<stop  offset="0.9987" style="stop-color:#2B2D7D"/>
		</linearGradient>
		<circle id="XMLID_161_" class="st10" cx="47.2" cy="12.4" r="3"/>
		<linearGradient id="XMLID_11_" gradientUnits="userSpaceOnUse" x1="38.0888" y1="-8.2053" x2="90.5604" y2="44.2663">
			<stop  offset="0" style="stop-color:#EA1946"/>
			<stop  offset="0.9987" style="stop-color:#2B2D7D"/>
		</linearGradient>
		<circle id="XMLID_160_" class="st11" cx="57.6" cy="11.3" r="2.5"/>
		<linearGradient id="XMLID_12_" gradientUnits="userSpaceOnUse" x1="37.0845" y1="-7.201" x2="89.5561" y2="45.2706">
			<stop  offset="0" style="stop-color:#EA1946"/>
			<stop  offset="0.9987" style="stop-color:#2B2D7D"/>
		</linearGradient>
		<circle id="XMLID_159_" class="st12" cx="64.6" cy="20.3" r="2.4"/>
		<linearGradient id="XMLID_13_" gradientUnits="userSpaceOnUse" x1="27.0347" y1="2.8489" x2="79.5062" y2="55.3205">
			<stop  offset="0" style="stop-color:#EA1946"/>
			<stop  offset="0.9987" style="stop-color:#2B2D7D"/>
		</linearGradient>
		<circle id="XMLID_158_" class="st13" cx="43.3" cy="19.2" r="1.6"/>
		<linearGradient id="XMLID_14_" gradientUnits="userSpaceOnUse" x1="28.7041" y1="1.1794" x2="81.1757" y2="53.651">
			<stop  offset="0" style="stop-color:#EA1946"/>
			<stop  offset="0.9987" style="stop-color:#2B2D7D"/>
		</linearGradient>
		<circle id="XMLID_157_" class="st14" cx="49.5" cy="21.9" r="2.2"/>
		<linearGradient id="XMLID_15_" gradientUnits="userSpaceOnUse" x1="33.2184" y1="-3.3348" x2="85.6899" y2="49.1367">
			<stop  offset="0" style="stop-color:#EA1946"/>
			<stop  offset="0.9987" style="stop-color:#2B2D7D"/>
		</linearGradient>
		<circle id="XMLID_156_" class="st15" cx="51.8" cy="15.2" r="1.6"/>
		<linearGradient id="XMLID_16_" gradientUnits="userSpaceOnUse" x1="36.2512" y1="-6.3677" x2="88.7228" y2="46.1039">
			<stop  offset="0" style="stop-color:#EA1946"/>
			<stop  offset="0.9987" style="stop-color:#2B2D7D"/>
		</linearGradient>
		<circle id="XMLID_155_" class="st16" cx="53.1" cy="10.4" r="1.6"/>
		<linearGradient id="XMLID_17_" gradientUnits="userSpaceOnUse" x1="38.6243" y1="-8.7408" x2="91.0959" y2="43.7308">
			<stop  offset="0" style="stop-color:#EA1946"/>
			<stop  offset="0.9987" style="stop-color:#2B2D7D"/>
		</linearGradient>
		<circle id="XMLID_154_" class="st17" cx="62.4" cy="15.1" r="1.6"/>
		<linearGradient id="XMLID_18_" gradientUnits="userSpaceOnUse" x1="27.5922" y1="2.2913" x2="80.0638" y2="54.7629">
			<stop  offset="0" style="stop-color:#EA1946"/>
			<stop  offset="0.9987" style="stop-color:#2B2D7D"/>
		</linearGradient>
		<circle id="XMLID_153_" class="st18" cx="72.9" cy="47.6" r="1.7"/>
		<linearGradient id="XMLID_19_" gradientUnits="userSpaceOnUse" x1="30.1133" y1="-0.2298" x2="82.5849" y2="52.2418">
			<stop  offset="0" style="stop-color:#EA1946"/>
			<stop  offset="0.9987" style="stop-color:#2B2D7D"/>
		</linearGradient>
		<circle id="XMLID_152_" class="st19" cx="73.3" cy="43" r="1.2"/>
		<linearGradient id="XMLID_20_" gradientUnits="userSpaceOnUse" x1="44.4113" y1="-14.5277" x2="96.8828" y2="37.9438">
			<stop  offset="0" style="stop-color:#EA1946"/>
			<stop  offset="0.9987" style="stop-color:#2B2D7D"/>
		</linearGradient>
		<circle id="XMLID_151_" class="st20" cx="62.7" cy="3.7" r="1.2"/>
		<linearGradient id="XMLID_21_" gradientUnits="userSpaceOnUse" x1="27.6224" y1="2.2612" x2="80.0939" y2="54.7327">
			<stop  offset="0" style="stop-color:#EA1946"/>
			<stop  offset="0.9987" style="stop-color:#2B2D7D"/>
		</linearGradient>
		<circle id="XMLID_150_" class="st21" cx="69.1" cy="43.8" r="2.4"/>
		<linearGradient id="XMLID_22_" gradientUnits="userSpaceOnUse" x1="17.4867" y1="12.3969" x2="69.9583" y2="64.8684">
			<stop  offset="0" style="stop-color:#EA1946"/>
			<stop  offset="0.9987" style="stop-color:#2B2D7D"/>
		</linearGradient>
		<circle id="XMLID_149_" class="st22" cx="62.4" cy="57.3" r="2.3"/>
		<linearGradient id="XMLID_23_" gradientUnits="userSpaceOnUse" x1="31.5878" y1="-1.7042" x2="84.0593" y2="50.7673">
			<stop  offset="0" style="stop-color:#EA1946"/>
			<stop  offset="0.9987" style="stop-color:#2B2D7D"/>
		</linearGradient>
		<circle id="XMLID_148_" class="st23" cx="69.7" cy="36.5" r="3.7"/>
		<linearGradient id="XMLID_24_" gradientUnits="userSpaceOnUse" x1="44.9967" y1="-15.1131" x2="97.4682" y2="37.3584">
			<stop  offset="0" style="stop-color:#EA1946"/>
			<stop  offset="0.9987" style="stop-color:#2B2D7D"/>
		</linearGradient>
		<circle id="XMLID_147_" class="st24" cx="74.6" cy="14.5" r="2.4"/>
		<linearGradient id="XMLID_25_" gradientUnits="userSpaceOnUse" x1="26.5186" y1="3.3649" x2="78.9902" y2="55.8365">
			<stop  offset="0" style="stop-color:#EA1946"/>
			<stop  offset="0.9987" style="stop-color:#2B2D7D"/>
		</linearGradient>
		<circle id="XMLID_146_" class="st25" cx="60.1" cy="37" r="3.5"/>
		<linearGradient id="XMLID_26_" gradientUnits="userSpaceOnUse" x1="14.3826" y1="15.5009" x2="66.8542" y2="67.9725">
			<stop  offset="0" style="stop-color:#EA1946"/>
			<stop  offset="0.9987" style="stop-color:#2B2D7D"/>
		</linearGradient>
		<circle id="XMLID_145_" class="st26" cx="48.1" cy="49.3" r="1.4"/>
		<linearGradient id="XMLID_27_" gradientUnits="userSpaceOnUse" x1="2.8411" y1="27.0424" x2="55.3127" y2="79.514">
			<stop  offset="0" style="stop-color:#EA1946"/>
			<stop  offset="0.9987" style="stop-color:#2B2D7D"/>
		</linearGradient>
		<circle id="XMLID_144_" class="st27" cx="37.4" cy="61.6" r="1.7"/>
		<linearGradient id="XMLID_28_" gradientUnits="userSpaceOnUse" x1="6.3176" y1="23.5659" x2="58.7892" y2="76.0375">
			<stop  offset="0" style="stop-color:#EA1946"/>
			<stop  offset="0.9987" style="stop-color:#2B2D7D"/>
		</linearGradient>
		<circle id="XMLID_143_" class="st28" cx="41.6" cy="58.9" r="2.3"/>
		<linearGradient id="XMLID_29_" gradientUnits="userSpaceOnUse" x1="11.4833" y1="18.4002" x2="63.9549" y2="70.8718">
			<stop  offset="0" style="stop-color:#EA1946"/>
			<stop  offset="0.9987" style="stop-color:#2B2D7D"/>
		</linearGradient>
		<circle id="XMLID_142_" class="st29" cx="45.1" cy="52" r="2.6"/>
		<linearGradient id="XMLID_30_" gradientUnits="userSpaceOnUse" x1="8.259" y1="21.6246" x2="60.7305" y2="74.0962">
			<stop  offset="0" style="stop-color:#EA1946"/>
			<stop  offset="0.9987" style="stop-color:#2B2D7D"/>
		</linearGradient>
		<circle id="XMLID_141_" class="st30" cx="41.2" cy="54.6" r="1"/>
		<linearGradient id="XMLID_31_" gradientUnits="userSpaceOnUse" x1="10.5531" y1="19.3304" x2="63.0247" y2="71.802">
			<stop  offset="0" style="stop-color:#EA1946"/>
			<stop  offset="0.9987" style="stop-color:#2B2D7D"/>
		</linearGradient>
		<circle id="XMLID_140_" class="st31" cx="46.8" cy="55.5" r="1"/>
		<linearGradient id="XMLID_32_" gradientUnits="userSpaceOnUse" x1="4.1033" y1="25.7803" x2="56.5748" y2="78.2519">
			<stop  offset="0" style="stop-color:#EA1946"/>
			<stop  offset="0.9987" style="stop-color:#2B2D7D"/>
		</linearGradient>
		<circle id="XMLID_139_" class="st32" cx="31.9" cy="53.6" r="1.4"/>
		<linearGradient id="XMLID_33_" gradientUnits="userSpaceOnUse" x1="6.035" y1="23.8486" x2="58.5065" y2="76.3202">
			<stop  offset="0" style="stop-color:#EA1946"/>
			<stop  offset="0.9987" style="stop-color:#2B2D7D"/>
		</linearGradient>
		<circle id="XMLID_138_" class="st33" cx="31.6" cy="49.4" r="1"/>
		<linearGradient id="XMLID_34_" gradientUnits="userSpaceOnUse" x1="-1.6943" y1="31.5778" x2="50.7773" y2="84.0494">
			<stop  offset="0" style="stop-color:#EA1946"/>
			<stop  offset="0.9987" style="stop-color:#2B2D7D"/>
		</linearGradient>
		<circle id="XMLID_137_" class="st34" cx="18.9" cy="52.2" r="2.1"/>
		<linearGradient id="XMLID_35_" gradientUnits="userSpaceOnUse" x1="12.368" y1="17.5155" x2="64.8396" y2="69.9871">
			<stop  offset="0" style="stop-color:#EA1946"/>
			<stop  offset="0.9987" style="stop-color:#2B2D7D"/>
		</linearGradient>
		<circle id="XMLID_136_" class="st35" cx="41" cy="46.2" r="0.8"/>
		<linearGradient id="XMLID_36_" gradientUnits="userSpaceOnUse" x1="43.7086" y1="-13.825" x2="96.1801" y2="38.6466">
			<stop  offset="0" style="stop-color:#EA1946"/>
			<stop  offset="0.9987" style="stop-color:#2B2D7D"/>
		</linearGradient>
		<circle id="XMLID_135_" class="st36" cx="60.2" cy="2.6" r="0.9"/>
		<linearGradient id="XMLID_37_" gradientUnits="userSpaceOnUse" x1="6.4526" y1="23.4309" x2="58.9242" y2="75.9025">
			<stop  offset="0" style="stop-color:#EA1946"/>
			<stop  offset="0.9987" style="stop-color:#2B2D7D"/>
		</linearGradient>
		<circle id="XMLID_134_" class="st37" cx="26.6" cy="43.6" r="1"/>
		<linearGradient id="XMLID_38_" gradientUnits="userSpaceOnUse" x1="20.5037" y1="9.3798" x2="72.9753" y2="61.8514">
			<stop  offset="0" style="stop-color:#EA1946"/>
			<stop  offset="0.9987" style="stop-color:#2B2D7D"/>
		</linearGradient>
		<circle id="XMLID_133_" class="st38" cx="32.5" cy="21.3" r="1"/>
		<linearGradient id="XMLID_39_" gradientUnits="userSpaceOnUse" x1="20.5915" y1="9.292" x2="73.0631" y2="61.7636">
			<stop  offset="0" style="stop-color:#EA1946"/>
			<stop  offset="0.9987" style="stop-color:#2B2D7D"/>
		</linearGradient>
		<circle id="XMLID_132_" class="st39" cx="52.7" cy="41.4" r="1"/>
		<linearGradient id="XMLID_40_" gradientUnits="userSpaceOnUse" x1="29.8892" y1="-5.672159e-03" x2="82.3608" y2="52.4659">
			<stop  offset="0" style="stop-color:#EA1946"/>
			<stop  offset="0.9987" style="stop-color:#2B2D7D"/>
		</linearGradient>
		<circle id="XMLID_131_" class="st40" cx="48.2" cy="18.3" r="1"/>
		<linearGradient id="XMLID_41_" gradientUnits="userSpaceOnUse" x1="44.5537" y1="-14.6701" x2="97.0252" y2="37.8015">
			<stop  offset="0" style="stop-color:#EA1946"/>
			<stop  offset="0.9987" style="stop-color:#2B2D7D"/>
		</linearGradient>
		<circle id="XMLID_130_" class="st41" cx="65.6" cy="6.4" r="1"/>
		<linearGradient id="XMLID_42_" gradientUnits="userSpaceOnUse" x1="46.2608" y1="-16.3773" x2="98.7324" y2="36.0943">
			<stop  offset="0" style="stop-color:#EA1946"/>
			<stop  offset="0.9987" style="stop-color:#2B2D7D"/>
		</linearGradient>
		<circle id="XMLID_129_" class="st42" cx="66.1" cy="3.4" r="1.7"/>
		<linearGradient id="XMLID_43_" gradientUnits="userSpaceOnUse" x1="28.6267" y1="1.2568" x2="81.0983" y2="53.7284">
			<stop  offset="0" style="stop-color:#EA1946"/>
			<stop  offset="0.9987" style="stop-color:#2B2D7D"/>
		</linearGradient>
		<circle id="XMLID_128_" class="st43" cx="52.7" cy="25.3" r="1"/>
		<linearGradient id="XMLID_44_" gradientUnits="userSpaceOnUse" x1="43.2252" y1="-13.3417" x2="95.6968" y2="39.1299">
			<stop  offset="0" style="stop-color:#EA1946"/>
			<stop  offset="0.9987" style="stop-color:#2B2D7D"/>
		</linearGradient>
		<circle id="XMLID_121_" class="st44" cx="75.6" cy="19.1" r="1"/>
		<linearGradient id="XMLID_45_" gradientUnits="userSpaceOnUse" x1="42.1753" y1="-12.2918" x2="94.6469" y2="40.1798">
			<stop  offset="0" style="stop-color:#EA1946"/>
			<stop  offset="0.9987" style="stop-color:#2B2D7D"/>
		</linearGradient>
		<circle id="XMLID_120_" class="st45" cx="76.4" cy="21.9" r="0.7"/>
		<linearGradient id="XMLID_46_" gradientUnits="userSpaceOnUse" x1="22.815" y1="7.0685" x2="75.2866" y2="59.5401">
			<stop  offset="0" style="stop-color:#EA1946"/>
			<stop  offset="0.9987" style="stop-color:#2B2D7D"/>
		</linearGradient>
		<circle id="XMLID_119_" class="st46" cx="32.1" cy="16.4" r="1"/>
		<linearGradient id="XMLID_47_" gradientUnits="userSpaceOnUse" x1="35.707" y1="-5.8235" x2="88.1786" y2="46.6481">
			<stop  offset="0" style="stop-color:#EA1946"/>
			<stop  offset="0.9987" style="stop-color:#2B2D7D"/>
		</linearGradient>
		<circle id="XMLID_118_" class="st47" cx="50.1" cy="8.6" r="1"/>
		<linearGradient id="XMLID_48_" gradientUnits="userSpaceOnUse" x1="28.9428" y1="0.9407" x2="81.4144" y2="53.4123">
			<stop  offset="0" style="stop-color:#EA1946"/>
			<stop  offset="0.9987" style="stop-color:#2B2D7D"/>
		</linearGradient>
		<circle id="XMLID_117_" class="st48" cx="44.2" cy="16.2" r="1"/>
		<linearGradient id="XMLID_49_" gradientUnits="userSpaceOnUse" x1="2.0734" y1="27.8102" x2="54.5449" y2="80.2817">
			<stop  offset="0" style="stop-color:#EA1946"/>
			<stop  offset="0.9987" style="stop-color:#2B2D7D"/>
		</linearGradient>
		<circle id="XMLID_116_" class="st49" cx="10.5" cy="36.2" r="1.1"/>
		<linearGradient id="XMLID_50_" gradientUnits="userSpaceOnUse" x1="8.9231" y1="20.9604" x2="61.3947" y2="73.432">
			<stop  offset="0" style="stop-color:#EA1946"/>
			<stop  offset="0.9987" style="stop-color:#2B2D7D"/>
		</linearGradient>
		<circle id="XMLID_115_" class="st50" cx="20.2" cy="32.2" r="1.3"/>
		<linearGradient id="XMLID_51_" gradientUnits="userSpaceOnUse" x1="11.1681" y1="18.7155" x2="63.6396" y2="71.1871">
			<stop  offset="0" style="stop-color:#EA1946"/>
			<stop  offset="0.9987" style="stop-color:#2B2D7D"/>
		</linearGradient>
		<circle id="XMLID_114_" class="st51" cx="25.8" cy="33.3" r="1.4"/>
		<linearGradient id="XMLID_52_" gradientUnits="userSpaceOnUse" x1="16.7213" y1="13.1622" x2="69.1929" y2="65.6338">
			<stop  offset="0" style="stop-color:#EA1946"/>
			<stop  offset="0.9987" style="stop-color:#2B2D7D"/>
		</linearGradient>
		<circle id="XMLID_113_" class="st52" cx="25.3" cy="21.8" r="1.5"/>
		<linearGradient id="XMLID_53_" gradientUnits="userSpaceOnUse" x1="19.5637" y1="10.3198" x2="72.0353" y2="62.7914">
			<stop  offset="0" style="stop-color:#EA1946"/>
			<stop  offset="0.9987" style="stop-color:#2B2D7D"/>
		</linearGradient>
		<circle id="XMLID_112_" class="st53" cx="29.6" cy="20.4" r="1.1"/>
		<linearGradient id="XMLID_54_" gradientUnits="userSpaceOnUse" x1="25.3164" y1="4.5671" x2="77.788" y2="57.0387">
			<stop  offset="0" style="stop-color:#EA1946"/>
			<stop  offset="0.9987" style="stop-color:#2B2D7D"/>
		</linearGradient>
		<circle id="XMLID_111_" class="st54" cx="39.9" cy="19.2" r="1.1"/>
		<linearGradient id="XMLID_55_" gradientUnits="userSpaceOnUse" x1="27.8178" y1="2.0658" x2="80.2893" y2="54.5373">
			<stop  offset="0" style="stop-color:#EA1946"/>
			<stop  offset="0.9987" style="stop-color:#2B2D7D"/>
		</linearGradient>
		<circle id="XMLID_110_" class="st55" cx="45.7" cy="20" r="0.7"/>
		<linearGradient id="XMLID_59_" gradientUnits="userSpaceOnUse" x1="3.2419" y1="26.6416" x2="55.7135" y2="79.1132">
			<stop  offset="0" style="stop-color:#EA1946"/>
			<stop  offset="0.9987" style="stop-color:#2B2D7D"/>
		</linearGradient>
		<circle id="XMLID_109_" class="st56" cx="21.9" cy="45.3" r="1.4"/>
		<linearGradient id="XMLID_60_" gradientUnits="userSpaceOnUse" x1="0.1288" y1="29.7548" x2="52.6003" y2="82.2263">
			<stop  offset="0" style="stop-color:#EA1946"/>
			<stop  offset="0.9987" style="stop-color:#2B2D7D"/>
		</linearGradient>
		<circle id="XMLID_108_" class="st57" cx="11.7" cy="41.4" r="1.2"/>
		<linearGradient id="XMLID_68_" gradientUnits="userSpaceOnUse" x1="8.6499" y1="21.2336" x2="61.1215" y2="73.7052">
			<stop  offset="0" style="stop-color:#EA1946"/>
			<stop  offset="0.9987" style="stop-color:#2B2D7D"/>
		</linearGradient>
		<circle id="XMLID_107_" class="st58" cx="47.2" cy="59.8" r="2.5"/>
		<linearGradient id="XMLID_69_" gradientUnits="userSpaceOnUse" x1="16.9176" y1="12.966" x2="69.3891" y2="65.4376">
			<stop  offset="0" style="stop-color:#EA1946"/>
			<stop  offset="0.9987" style="stop-color:#2B2D7D"/>
		</linearGradient>
		<circle id="XMLID_106_" class="st59" cx="48.1" cy="44.2" r="1.4"/>
		<linearGradient id="XMLID_72_" gradientUnits="userSpaceOnUse" x1="9.004" y1="20.8795" x2="61.4756" y2="73.3511">
			<stop  offset="0" style="stop-color:#EA1946"/>
			<stop  offset="0.9987" style="stop-color:#2B2D7D"/>
		</linearGradient>
		<circle id="XMLID_103_" class="st60" cx="28.6" cy="40.4" r="1.4"/>
		<linearGradient id="XMLID_73_" gradientUnits="userSpaceOnUse" x1="4.9327" y1="24.9508" x2="57.4043" y2="77.4224">
			<stop  offset="0" style="stop-color:#EA1946"/>
			<stop  offset="0.9987" style="stop-color:#2B2D7D"/>
		</linearGradient>
		<circle id="XMLID_102_" class="st61" cx="37.3" cy="57.3" r="1.4"/>
		<linearGradient id="XMLID_77_" gradientUnits="userSpaceOnUse" x1="37.9153" y1="-8.0318" x2="90.3869" y2="44.4398">
			<stop  offset="0" style="stop-color:#EA1946"/>
			<stop  offset="0.9987" style="stop-color:#2B2D7D"/>
		</linearGradient>
		<circle id="XMLID_101_" class="st62" cx="53.1" cy="7.1" r="1.5"/>
		<linearGradient id="XMLID_78_" gradientUnits="userSpaceOnUse" x1="37.0513" y1="-7.1678" x2="89.5229" y2="45.3038">
			<stop  offset="0" style="stop-color:#EA1946"/>
			<stop  offset="0.9987" style="stop-color:#2B2D7D"/>
		</linearGradient>
		<circle id="XMLID_98_" class="st63" cx="49.5" cy="5.3" r="1.3"/>
		<linearGradient id="XMLID_84_" gradientUnits="userSpaceOnUse" x1="30.1163" y1="-0.2328" x2="82.5879" y2="52.2388">
			<stop  offset="0" style="stop-color:#EA1946"/>
			<stop  offset="0.9987" style="stop-color:#2B2D7D"/>
		</linearGradient>
		<circle id="XMLID_97_" class="st64" cx="39" cy="8.6" r="1.6"/>
		<linearGradient id="XMLID_85_" gradientUnits="userSpaceOnUse" x1="31.6884" y1="-1.8049" x2="84.16" y2="50.6667">
			<stop  offset="0" style="stop-color:#EA1946"/>
			<stop  offset="0.9987" style="stop-color:#2B2D7D"/>
		</linearGradient>
		<circle id="XMLID_96_" class="st65" cx="37.6" cy="4.1" r="2.1"/>
		<linearGradient id="XMLID_89_" gradientUnits="userSpaceOnUse" x1="29.2477" y1="0.6358" x2="81.7193" y2="53.1074">
			<stop  offset="0" style="stop-color:#EA1946"/>
			<stop  offset="0.9987" style="stop-color:#2B2D7D"/>
		</linearGradient>
		<circle id="XMLID_93_" class="st66" cx="33" cy="4.4" r="1.6"/>
		<linearGradient id="XMLID_90_" gradientUnits="userSpaceOnUse" x1="25.6501" y1="4.2334" x2="78.1217" y2="56.705">
			<stop  offset="0" style="stop-color:#EA1946"/>
			<stop  offset="0.9987" style="stop-color:#2B2D7D"/>
		</linearGradient>
		<circle id="XMLID_92_" class="st67" cx="28.2" cy="6.7" r="2.4"/>
		<linearGradient id="XMLID_94_" gradientUnits="userSpaceOnUse" x1="34.2412" y1="-4.3577" x2="86.7128" y2="48.1139">
			<stop  offset="0" style="stop-color:#EA1946"/>
			<stop  offset="0.9987" style="stop-color:#2B2D7D"/>
		</linearGradient>
		<circle id="XMLID_91_" class="st68" cx="44.2" cy="5.6" r="3"/>
		<linearGradient id="XMLID_95_" gradientUnits="userSpaceOnUse" x1="25.5272" y1="4.3563" x2="77.9988" y2="56.8279">
			<stop  offset="0" style="stop-color:#EA1946"/>
			<stop  offset="0.9987" style="stop-color:#2B2D7D"/>
		</linearGradient>
		<circle id="XMLID_88_" class="st69" cx="32.5" cy="11.3" r="2.9"/>
		<linearGradient id="XMLID_99_" gradientUnits="userSpaceOnUse" x1="23.6551" y1="6.2285" x2="76.1266" y2="58.7">
			<stop  offset="0" style="stop-color:#EA1946"/>
			<stop  offset="0.9987" style="stop-color:#2B2D7D"/>
		</linearGradient>
		<circle id="XMLID_87_" class="st70" cx="35.5" cy="18.1" r="2.7"/>
		<linearGradient id="XMLID_100_" gradientUnits="userSpaceOnUse" x1="21.2145" y1="8.6691" x2="73.686" y2="61.1407">
			<stop  offset="0" style="stop-color:#EA1946"/>
			<stop  offset="0.9987" style="stop-color:#2B2D7D"/>
		</linearGradient>
		<circle id="XMLID_86_" class="st71" cx="23.1" cy="10.6" r="3.1"/>
		<linearGradient id="XMLID_104_" gradientUnits="userSpaceOnUse" x1="-4.294948e-02" y1="29.9265" x2="52.4286" y2="82.3981">
			<stop  offset="0" style="stop-color:#EA1946"/>
			<stop  offset="0.9987" style="stop-color:#2B2D7D"/>
		</linearGradient>
		<circle id="XMLID_83_" class="st72" cx="15.7" cy="45.7" r="3.7"/>
		<linearGradient id="XMLID_105_" gradientUnits="userSpaceOnUse" x1="3.51" y1="26.3736" x2="55.9815" y2="78.8451">
			<stop  offset="0" style="stop-color:#EA1946"/>
			<stop  offset="0.9987" style="stop-color:#2B2D7D"/>
		</linearGradient>
		<circle id="XMLID_82_" class="st73" cx="14.8" cy="37.7" r="2.8"/>
		<linearGradient id="XMLID_122_" gradientUnits="userSpaceOnUse" x1="20.482" y1="9.4015" x2="72.9536" y2="61.8731">
			<stop  offset="0" style="stop-color:#EA1946"/>
			<stop  offset="0.9987" style="stop-color:#2B2D7D"/>
		</linearGradient>
		<circle id="XMLID_81_" class="st74" cx="27.7" cy="16.7" r="2.5"/>
		<linearGradient id="XMLID_123_" gradientUnits="userSpaceOnUse" x1="17.2764" y1="12.6071" x2="69.748" y2="65.0787">
			<stop  offset="0" style="stop-color:#EA1946"/>
			<stop  offset="0.9987" style="stop-color:#2B2D7D"/>
		</linearGradient>
		<circle id="XMLID_80_" class="st75" cx="28.6" cy="23.9" r="2"/>
		<linearGradient id="XMLID_124_" gradientUnits="userSpaceOnUse" x1="33.2354" y1="-3.3518" x2="85.7069" y2="49.1197">
			<stop  offset="0" style="stop-color:#EA1946"/>
			<stop  offset="0.9987" style="stop-color:#2B2D7D"/>
		</linearGradient>
		<circle id="XMLID_79_" class="st76" cx="56.6" cy="20" r="4.6"/>
		<linearGradient id="XMLID_125_" gradientUnits="userSpaceOnUse" x1="13.2577" y1="16.6258" x2="65.7293" y2="69.0974">
			<stop  offset="0" style="stop-color:#EA1946"/>
			<stop  offset="0.9987" style="stop-color:#2B2D7D"/>
		</linearGradient>
		<circle id="XMLID_76_" class="st77" cx="52.1" cy="55.5" r="4"/>
		<linearGradient id="XMLID_126_" gradientUnits="userSpaceOnUse" x1="8.2536" y1="21.6299" x2="60.7252" y2="74.1015">
			<stop  offset="0" style="stop-color:#EA1946"/>
			<stop  offset="0.9987" style="stop-color:#2B2D7D"/>
		</linearGradient>
		<circle id="XMLID_75_" class="st78" cx="37" cy="50.4" r="4.2"/>
		<linearGradient id="XMLID_127_" gradientUnits="userSpaceOnUse" x1="1.4264" y1="28.4571" x2="53.898" y2="80.9287">
			<stop  offset="0" style="stop-color:#EA1946"/>
			<stop  offset="0.9987" style="stop-color:#2B2D7D"/>
		</linearGradient>
		<circle id="XMLID_74_" class="st79" cx="32.1" cy="59.1" r="3.1"/>
		<linearGradient id="XMLID_175_" gradientUnits="userSpaceOnUse" x1="4.4924" y1="25.3911" x2="56.964" y2="77.8627">
			<stop  offset="0" style="stop-color:#EA1946"/>
			<stop  offset="0.9987" style="stop-color:#2B2D7D"/>
		</linearGradient>
		<circle id="XMLID_71_" class="st80" cx="27.1" cy="48" r="3.1"/>
		<linearGradient id="XMLID_176_" gradientUnits="userSpaceOnUse" x1="8.5504" y1="21.3331" x2="61.022" y2="73.8047">
			<stop  offset="0" style="stop-color:#EA1946"/>
			<stop  offset="0.9987" style="stop-color:#2B2D7D"/>
		</linearGradient>
		<circle id="XMLID_70_" class="st81" cx="32.1" cy="44.9" r="2.1"/>
		<linearGradient id="XMLID_189_" gradientUnits="userSpaceOnUse" x1="14.0017" y1="15.8818" x2="66.4733" y2="68.3534">
			<stop  offset="0" style="stop-color:#EA1946"/>
			<stop  offset="0.9987" style="stop-color:#2B2D7D"/>
		</linearGradient>
		<circle id="XMLID_67_" class="st82" cx="44.8" cy="46.6" r="2.1"/>
		<linearGradient id="XMLID_190_" gradientUnits="userSpaceOnUse" x1="-0.1778" y1="30.0614" x2="52.2938" y2="82.5329">
			<stop  offset="0" style="stop-color:#EA1946"/>
			<stop  offset="0.9987" style="stop-color:#2B2D7D"/>
		</linearGradient>
		<circle id="XMLID_66_" class="st83" cx="25.2" cy="55.5" r="4"/>
		<linearGradient id="XMLID_191_" gradientUnits="userSpaceOnUse" x1="17.572" y1="12.3115" x2="70.0436" y2="64.7831">
			<stop  offset="0" style="stop-color:#EA1946"/>
			<stop  offset="0.9987" style="stop-color:#2B2D7D"/>
		</linearGradient>
		<circle id="XMLID_65_" class="st84" cx="52.1" cy="46.8" r="3.1"/>
		<linearGradient id="XMLID_192_" gradientUnits="userSpaceOnUse" x1="12.9252" y1="16.9583" x2="65.3968" y2="69.4299">
			<stop  offset="0" style="stop-color:#EA1946"/>
			<stop  offset="0.9987" style="stop-color:#2B2D7D"/>
		</linearGradient>
		<circle id="XMLID_64_" class="st85" cx="23.7" cy="27.8" r="3.7"/>
		<linearGradient id="XMLID_193_" gradientUnits="userSpaceOnUse" x1="24.3054" y1="5.5782" x2="76.7769" y2="58.0497">
			<stop  offset="0" style="stop-color:#EA1946"/>
			<stop  offset="0.9987" style="stop-color:#2B2D7D"/>
		</linearGradient>
		<circle id="XMLID_63_" class="st86" cx="67.1" cy="48.4" r="1.7"/>
		<linearGradient id="XMLID_194_" gradientUnits="userSpaceOnUse" x1="21.2053" y1="8.6783" x2="73.6768" y2="61.1498">
			<stop  offset="0" style="stop-color:#EA1946"/>
			<stop  offset="0.9987" style="stop-color:#2B2D7D"/>
		</linearGradient>
		<circle id="XMLID_62_" class="st87" cx="62.1" cy="49.6" r="3.1"/>
		<linearGradient id="XMLID_195_" gradientUnits="userSpaceOnUse" x1="27.5036" y1="2.3799" x2="79.9752" y2="54.8515">
			<stop  offset="0" style="stop-color:#EA1946"/>
			<stop  offset="0.9987" style="stop-color:#2B2D7D"/>
		</linearGradient>
		<circle id="XMLID_61_" class="st88" cx="65.8" cy="40.7" r="1.7"/>
		<linearGradient id="XMLID_196_" gradientUnits="userSpaceOnUse" x1="24.2161" y1="5.6675" x2="76.6877" y2="58.139">
			<stop  offset="0" style="stop-color:#EA1946"/>
			<stop  offset="0.9987" style="stop-color:#2B2D7D"/>
		</linearGradient>
		<circle id="XMLID_58_" class="st89" cx="61.7" cy="43.2" r="2.5"/>
	</g>
</g>
</svg>
